<svg xmlns="http://www.w3.org/2000/svg" version="1.1" xmlns:xlink="http://www.w3.org/1999/xlink" xmlns:svgjs="http://svgjs.dev/svgjs" width="2000" height="792" viewBox="0 0 2000 792"><g transform="matrix(1,0,0,1,-1.2121212121213603,-1.1592166972530435)"><svg viewBox="0 0 396 157" data-background-color="#ffffff" preserveAspectRatio="xMidYMid meet" height="792" width="2000" xmlns="http://www.w3.org/2000/svg" xmlns:xlink="http://www.w3.org/1999/xlink"><g id="tight-bounds" transform="matrix(1,0,0,1,0.24000000000003752,0.22979421902617503)"><svg viewBox="0 0 395.5199999999999 156.54041156194765" height="156.54041156194765" width="395.5199999999999"><g><svg viewBox="0 0 397.4975999999999 157.32311361975738" height="156.54041156194765" width="395.5199999999999"><g><rect width="397.4975999999999" height="4.8185991834102335" x="0" y="86.45786724081508" fill="#ff0000" opacity="1" stroke-width="0" stroke="transparent" fill-opacity="1" class="rect-o-0" data-fill-palette-color="primary" rx="1%" id="o-0" data-palette-color="#ff0000"></rect></g><g transform="matrix(1,0,0,1,0.9887999999999693,103.8906004122102)"><svg viewBox="0 0 395.52 53.43251320754716" height="53.43251320754716" width="395.52"><g id="textblocktransform"><svg viewBox="0 0 395.52 53.43251320754716" height="53.43251320754716" width="395.52" id="textblock"><g><svg viewBox="0 0 395.52 53.43251320754716" height="53.43251320754716" width="395.52"><g transform="matrix(1,0,0,1,0,0)"><svg width="395.52" viewBox="2.4000000953674316 -35.400001525878906 263.9800109863281 35.80000305175781" height="53.43251320754716" data-palette-color="#ff0000"><g class="wordmark-text-0" data-fill-palette-color="primary" id="text-0"><path d="M20.9 0.4Q15.65 0.4 11.43-1.93 7.2-4.25 4.8-8.33 2.4-12.4 2.4-17.5L2.4-17.5Q2.4-22.6 4.8-26.68 7.2-30.75 11.45-33.08 15.7-35.4 20.95-35.4L20.95-35.4Q25.05-35.4 28.45-34.02 31.85-32.65 34.25-29.95L34.25-29.95 31-26.8Q27.05-30.95 21.15-30.95L21.15-30.95Q17.25-30.95 14.1-29.2 10.95-27.45 9.18-24.38 7.4-21.3 7.4-17.5L7.4-17.5Q7.4-13.7 9.18-10.63 10.95-7.55 14.1-5.8 17.25-4.05 21.15-4.05L21.15-4.05Q27-4.05 31-8.25L31-8.25 34.25-5.1Q31.85-2.4 28.43-1 25 0.4 20.9 0.4L20.9 0.4ZM67.55 0L63.7-8.75 45.1-8.75 41.25 0 36.1 0 51.95-35 56.9-35 72.8 0 67.55 0ZM46.85-12.75L61.95-12.75 54.4-29.9 46.85-12.75ZM106.84 0L101.4 0 93.84-10.75Q92.45-10.65 91.65-10.65L91.65-10.65 83-10.65 83 0 78 0 78-35 91.65-35Q98.45-35 102.34-31.75 106.25-28.5 106.25-22.8L106.25-22.8Q106.25-18.75 104.25-15.9 102.25-13.05 98.55-11.75L98.55-11.75 106.84 0ZM91.5-14.9Q96.25-14.9 98.75-16.95 101.25-19 101.25-22.8L101.25-22.8Q101.25-26.6 98.75-28.63 96.25-30.65 91.5-30.65L91.5-30.65 83-30.65 83-14.9 91.5-14.9Z" fill="#ff0000" data-fill-palette-color="primary"></path><path d="M129.14-4.35L151.69-4.35 151.69 0 122.44 0 122.44-3.4 144.44-30.65 122.79-30.65 122.79-35 151.04-35 151.04-31.6 129.14-4.35ZM174.18 0.4Q168.89 0.4 164.64-1.93 160.39-4.25 157.96-8.35 155.54-12.45 155.54-17.5L155.54-17.5Q155.54-22.55 157.96-26.65 160.39-30.75 164.64-33.08 168.89-35.4 174.18-35.4L174.18-35.4Q179.43-35.4 183.68-33.08 187.93-30.75 190.34-26.68 192.74-22.6 192.74-17.5L192.74-17.5Q192.74-12.4 190.34-8.33 187.93-4.25 183.68-1.93 179.43 0.4 174.18 0.4L174.18 0.4ZM174.18-4.05Q178.04-4.05 181.11-5.8 184.18-7.55 185.96-10.63 187.74-13.7 187.74-17.5L187.74-17.5Q187.74-21.3 185.96-24.38 184.18-27.45 181.11-29.2 178.04-30.95 174.18-30.95L174.18-30.95Q170.34-30.95 167.21-29.2 164.09-27.45 162.31-24.38 160.54-21.3 160.54-17.5L160.54-17.5Q160.54-13.7 162.31-10.63 164.09-7.55 167.21-5.8 170.34-4.05 174.18-4.05L174.18-4.05ZM225.48-35L230.48-35 230.48 0 226.38 0 205.38-26.1 205.38 0 200.38 0 200.38-35 204.48-35 225.48-8.9 225.48-35ZM245.98-4.35L266.38-4.35 266.38 0 240.98 0 240.98-35 265.68-35 265.68-30.65 245.98-30.65 245.98-19.9 263.53-19.9 263.53-15.65 245.98-15.65 245.98-4.35Z" fill="#ca3433" data-fill-palette-color="secondary"></path></g></svg></g></svg></g></svg></g></svg></g><g transform="matrix(1,0,0,1,102.72254298156092,0)"><svg viewBox="0 0 192.05251403687808 73.84373325283018" height="73.84373325283018" width="192.05251403687808"><g><svg version="1.0" xmlns="http://www.w3.org/2000/svg" xmlns:xlink="http://www.w3.org/1999/xlink" x="0" y="0" viewBox="0 0.00023700809106230736 100.00000762939453 38.449764251708984" enable-background="new 0 0 100 38.449" xml:space="preserve" width="192.05251403687808" height="73.84373325283018" class="icon-icon-0" data-fill-palette-color="accent" id="icon-0"><path d="M99.929 15.958c-0.053-0.283-0.157-0.619-0.364-1.056L80.803 0.005h-37.75c-0.874-0.054-1.348 0.359-1.763 0.841L28.672 13.487 1.078 18.071C0.694 18.406 0.309 18.735 0 19.599l0.059 9.493c0.598 1.521 1.006 1.324 1.459 1.536h5.312c0-12.905 19.225-12.856 19.225 0h49.021c0-12.933 19.08-12.906 19.08 0h4.354c0.731-0.067 1.142-0.713 1.49-1.47L99.929 15.958zM59.408 15.346H33.254c-0.995-0.393-1.13-0.988-0.716-1.713l9.403-9.278c0.212-0.18 0.379-0.428 0.747-0.374h16.72V15.346zM86.488 15.348H62.516V3.983h14.066c0.368-0.055 0.535 0.193 0.747 0.374l8.058 8.115C86.13 13.591 87.623 15.122 86.488 15.348z" fill="#ed2647" data-fill-palette-color="accent"></path><path d="M16.396 22.843c-4.31 0-7.804 3.493-7.804 7.803s3.494 7.804 7.804 7.804 7.804-3.494 7.804-7.804S20.705 22.843 16.396 22.843zM16.396 33.921c-1.819 0-3.294-1.475-3.294-3.293 0-1.819 1.475-3.294 3.294-3.294 1.818 0 3.293 1.475 3.293 3.294C19.688 32.446 18.214 33.921 16.396 33.921z" fill="#ed2647" data-fill-palette-color="accent"></path><path d="M84.615 22.839c-4.31 0-7.804 3.494-7.804 7.804s3.494 7.804 7.804 7.804 7.803-3.494 7.803-7.804S88.925 22.839 84.615 22.839zM84.615 33.921c-1.819 0-3.294-1.475-3.294-3.293 0-1.819 1.475-3.294 3.294-3.294 1.818 0 3.293 1.475 3.293 3.294C87.908 32.446 86.434 33.921 84.615 33.921z" fill="#ed2647" data-fill-palette-color="accent"></path></svg></g></svg></g><g></g></svg></g><defs></defs></svg><rect width="395.5199999999999" height="156.54041156194765" fill="none" stroke="none" visibility="hidden"></rect></g></svg></g></svg>